<?xml version="1.0" encoding="UTF-8"?><svg id="_图层_1" xmlns="http://www.w3.org/2000/svg" xmlns:xlink="http://www.w3.org/1999/xlink" viewBox="0 0 297.92 283.17"><defs><style>.cls-1,.cls-2{stroke-width:12.76px;}.cls-1,.cls-2,.cls-3{stroke:#003b4a;stroke-linecap:round;stroke-linejoin:round;}.cls-1,.cls-3{fill:none;}.cls-4{fill:#00bbb4;}.cls-5{fill:#003b4a;}.cls-6{fill:url(#_未命名的渐变_6);}.cls-2{fill:#f5a800;}.cls-3{stroke-width:10.77px;}</style><linearGradient id="_未命名的渐变_6" x1="207.57" y1="23.83" x2="156.6" y2="251.16" gradientUnits="userSpaceOnUse"><stop offset="0" stop-color="#008fbe" stop-opacity="0"/><stop offset="1" stop-color="#008fbe"/></linearGradient></defs><path class="cls-4" d="M70.99,139.25c0,19.28,3.48,65.89,46.02,93.46-10.18,25.89-22.85,40.65-22.85,40.65,0,0,66.05,12.48,109.74-10.17,18.21-9.44,36.46-22.2,51.56-39.05,21.13-23.58,36.09-53.81,36.09-82.22s-14.96-58.64-36.09-82.22c-15.1-16.85-33.36-29.61-51.56-39.05C160.2-1.99,98.36,9.09,98.36,9.09c0,0,7.39,8.36,26.45,34.25-48.36,29.93-53.82,81.98-53.82,101.26v-5.35Z"/><path class="cls-6" d="M70.99,139.25c0,19.28,3.48,65.89,46.02,93.46-10.18,25.89-22.85,40.65-22.85,40.65,0,0,66.05,12.48,109.74-10.17,18.21-9.44,36.46-22.2,51.56-39.05,21.13-23.58,36.09-53.81,36.09-82.22s-14.96-58.64-36.09-82.22c-15.1-16.85-33.36-29.61-51.56-39.05C160.2-1.99,98.36,9.09,98.36,9.09c0,0,7.39,8.36,26.45,34.25-48.36,29.93-53.82,81.98-53.82,101.26v-5.35Z"/><path class="cls-1" d="M70.99,139.25c0,19.28,3.48,65.89,46.02,93.46-10.18,25.89-22.85,40.65-22.85,40.65,0,0,66.05,12.48,109.74-10.17,18.21-9.44,36.46-22.2,51.56-39.05,21.13-23.58,36.09-53.81,36.09-82.22s-14.96-58.64-36.09-82.22c-15.1-16.85-33.36-29.61-51.56-39.05C160.2-1.99,98.36,9.09,98.36,9.09c0,0,7.39,8.36,26.45,34.25-48.36,29.93-53.82,81.98-53.82,101.26v-5.35Z"/><line class="cls-3" x1="289.9" y1="132.77" x2="264.32" y2="143.11"/><path class="cls-2" d="M70.99,144.6c0,15.51-5.19,29.16-10.43,39.58-12.31,24.5-33.84,35.33-53.28,38.16-2.36-25.53.18-44.61,4.63-56.94,5.46-15.12,16.48-20.81,16.48-20.81,0,0-11.02-5.69-16.48-20.81-4.45-12.33-7-31.41-4.63-56.94,19.44,2.84,40.97,13.67,53.28,38.16,5.24,10.42,10.43,24.07,10.43,39.58Z"/><circle class="cls-5" cx="214.56" cy="97.81" r="18.02" transform="translate(-19.64 125.28) rotate(-31.2)"/></svg>